<?xml version="1.0" encoding="UTF-8"?>
<svg version="1.1" viewBox="0 0 912 936" width="228" height="234" xmlns="http://www.w3.org/2000/svg">
<path transform="translate(0)" d="m0 0h912v936h-912z" fill="#007606"/>
<path transform="translate(722,230)" d="m0 0h8l22 5 11 6 10 8 8 9 6 11 4 11 2 8v16l-5 17-6 11-8 10-90 90-6 5-7 8-23 23h-2l-2 4-8 7-10 10-7 8-17 16-182 182h-2l-2 4-7 6-5 5-4 5-8 7-4 5-16 16-11 9-14 8-14 4h-22l-15-5-11-6-13-11-8-8v-2h-2v-2l-4-2-10-10v-2h-2v-2h-2l-7-8-37-37-2-1v-2l-4-2-92-92-7-11-5-10-4-18v-8l4-16 8-16 11-12 9-7 12-6 14-3h17l16 4 12 6 10 8 68 68v2l4 2 50 50 4-1 165-165h2l1-3 6-5 7-8 4-4h2l1-3 9-9h2l2-4 4-4h2l1-3 9-9h2l2-4 7-7 8-7 4-5 9-9h2l2-4h2l2-4h2l2-4h2l2-4h2l1-3 8-7 8-9 8-7 69-69 13-8 9-3z" fill="#F9F8F9"/>
<path transform="translate(0)" d="m0 0h912v936h-59l5-5 10-7 12-10 9-11 7-11 5-10 6-19 2-15 1-50v-646l-1-46-2-15-5-15-8-16-7-10-9-10-12-10-14-8-14-6-12-3-15-2h-744l-21 3-16 6-15 9-13 11h-2z" fill="#F9F8F9"/>
<path transform="translate(0,916)" d="m0 0 4 2 12 10 9 6 1 2h-26z" fill="#F9F8F9"/>
</svg>
